<svg xmlns="http://www.w3.org/2000/svg" viewBox="0 0 117.25 129.32">
  <defs>
    <style>.cls-1{fill:#b2184f;}.cls-2{fill:#606060;}
    </style>
  </defs>
  <g id="Layer_2" data-name="Layer 2">
    <g id="Layer_1-2" data-name="Layer 1">
      <path class="cls-1" d="M43.87,6.69a19.61,19.61,0,0,1,29.51,0,53.19,53.19,0,0,0,28.07,16.2h0a19.62,19.62,0,0,1,14.76,25.56h0a53.11,53.11,0,0,0,0,32.4h0a19.62,19.62,0,0,1-14.76,25.56,53.14,53.14,0,0,0-28.07,16.21h0a19.62,19.62,0,0,1-29.51,0h0a53.08,53.08,0,0,0-28.06-16.21h0A19.61,19.61,0,0,1,1.05,80.86a53,53,0,0,0,0-32.4h0A19.61,19.61,0,0,1,15.81,22.9,53.13,53.13,0,0,0,43.87,6.7Z"/>
      <circle id="1" class="slot cls-2" cx="58.63" cy="14.64" r="11"/>
      <circle id="2" class="slot cls-2" cx="15.31" cy="39.65" r="11"/>
      <circle id="3" class="slot cls-2" cx="15.31" cy="89.67" r="11"/>
      <circle id="4" class="slot cls-2" cx="58.63" cy="114.68" r="11"/>
      <circle id="5" class="slot cls-2" cx="101.94" cy="89.67" r="11"/>
      <circle id="6" class="slot cls-2" cx="101.94" cy="39.65" r="11"/>
    </g>
  </g>
</svg>